# xmcd CD database file
#
# Track frame offsets:
#	150
#	22096
#	36560
#	53384
#	67514
#	82648
#	100078
#	117764
#	130820
#	146579
#
# Disc length: 2175 seconds
#
# Revision: 1
# Processed by: cddbd v1.4PL0 Copyright (c) Steve Scherf et al.
# Submitted via: CDValet v3.40 - Copyright (c) 1996 - 1998 Greg Leichner
#
DISCID=74087d0a
DTITLE=Baker, Clay - Rumor Town
DYEAR=1900
DGENRE=
TTITLE0=Distance
TTITLE1=It's Only 'Cause You're Lonely
TTITLE2=I'll Pay
TTITLE3=Livin' Every Day Like It's Saturday Night
TTITLE4=I May Be A Fool
TTITLE5=Rumor Town
TTITLE6=Anyway
TTITLE7=Heart Of Glass
TTITLE8=Nothing But A Memory
TTITLE9=We Must Be Loving Right
EXTD=
EXTT0=
EXTT1=
EXTT2=
EXTT3=
EXTT4=
EXTT5=
EXTT6=
EXTT7=
EXTT8=
EXTT9=
PLAYORDER=
